PathFileType	4	(X/Y/Z)	 s05c0302.trc
DataRate	CameraRate	NumFrames	NumMarkers	Units	OrigDataRate	OrigDataStartFrame	OrigNumFrames
200	200	4	49	mm	200	1501	2000
Frame#	Time	racr			lacr			c7			jug			rlel			rdr			llel			ldr			s2			lic			ric			lasi			rasi			rpsi			lpsi			rgt			lgt			rth1			rth2			rth3			rth4			rlfc			rsh1			rsh2			rsh3			rsh4			rlmal			rmmal			rcal			rtoe			rmt5			lth1			lth2			lth4			lth3			llfc			lmfc			lsh1			lsh2			lsh3			lsh4			llmal			lmmal			lcal			ltoe			lmt5			SBIKE			LBIKE			RBIKE			
		X1	Y1	Z1	X2	Y2	Z2	X3	Y3	Z3	X4	Y4	Z4	X5	Y5	Z5	X6	Y6	Z6	X7	Y7	Z7	X8	Y8	Z8	X9	Y9	Z9	X10	Y10	Z10	X11	Y11	Z11	X12	Y12	Z12	X13	Y13	Z13	X14	Y14	Z14	X15	Y15	Z15	X16	Y16	Z16	X17	Y17	Z17	X18	Y18	Z18	X19	Y19	Z19	X20	Y20	Z20	X21	Y21	Z21	X22	Y22	Z22	X23	Y23	Z23	X24	Y24	Z24	X25	Y25	Z25	X26	Y26	Z26	X27	Y27	Z27	X28	Y28	Z28	X29	Y29	Z29	X30	Y30	Z30	X31	Y31	Z31	X32	Y32	Z32	X33	Y33	Z33	X34	Y34	Z34	X35	Y35	Z35	X36	Y36	Z36	X37	Y37	Z37	X38	Y38	Z38	X39	Y39	Z39	X40	Y40	Z40	X41	Y41	Z41	X42	Y42	Z42	X43	Y43	Z43	X44	Y44	Z44	X45	Y45	Z45	X46	Y46	Z46	X47	Y47	Z47	X48	Y48	Z48	X49	Y49	Z49	
1501	7.5050	716.171001	1241.215248	-140.901844	666.809965	1282.292511	-419.062868	687.510441	1333.805072	-282.619650	620.367728	1183.260710	-280.585518	566.996638	1073.384946	46.648082	696.842212	920.012577	-61.759309	500.575062	1064.035350	-537.538082	694.402960	927.306664	-448.530455	84.806966	1252.825961	-238.417577	232.415572	1223.317943	-385.469305	234.900003	1233.256746	-102.928416	257.114431	1158.228791	-345.074361	251.403375	1164.218673	-129.528463	134.019358	1289.944340	-199.524101	137.504982	1288.653655	-285.359689	165.675600	1130.066745	-68.198692	129.993859	1140.489507	-408.804764	258.095341	1059.501951	-60.909291	340.990917	1028.849613	-62.212057	396.716164	959.466343	-68.369264	361.780320	1056.489774	-77.988332	501.538592	858.439607	-102.576563	406.244864	811.385968	-77.926389	350.530267	743.255198	-90.123669	271.942950	710.463322	-92.322807	370.456475	720.699731	-113.912824	170.385535	628.424412	-99.609587	200.037226	642.847185	-176.654030	104.362003	666.332629	-141.263835	244.207741	406.617959	-158.466778	175.928117	476.758465	-85.888184	165.355942	1000.247117	-436.082829	210.310100	926.932895	-436.427076	243.925202	934.490398	-421.646242	210.332251	836.401815	-441.471482	241.121659	698.528789	-411.935892	230.025962	679.526867	-307.189169	196.800082	580.683964	-442.573976	210.730128	494.678720	-436.847536	178.639023	411.728020	-436.723700	243.694376	492.942080	-417.021962	177.889871	297.057228	-430.570281	215.761735	321.667782	-365.068461	117.584947	274.474636	-389.457316	387.974131	158.445668	-394.811737	277.360799	167.792581	-458.244613	-164.551632	902.731499	-268.688621	-43.498092	85.081638	-474.673828	-51.692628	80.226151	-77.199281	
1502	7.5100	713.707841	1242.288189	-139.563971	665.335296	1282.309319	-417.950953	685.185191	1334.225264	-281.682437	618.427335	1183.713147	-279.264663	565.319647	1072.423755	46.957238	696.470080	920.117364	-61.943371	500.753371	1063.431456	-537.571641	694.270162	926.974298	-448.722587	82.034905	1251.041542	-241.254771	231.259999	1220.253549	-386.579710	231.665291	1233.936671	-103.408556	255.666207	1155.737345	-345.188873	248.515187	1164.658693	-130.094281	130.735367	1288.559894	-202.172425	134.775987	1286.710463	-288.225008	162.713836	1130.519987	-69.172324	128.484656	1137.017245	-410.480568	256.083488	1061.908003	-62.233809	339.733482	1032.689148	-63.069517	396.703950	964.540778	-68.424033	359.775413	1061.106129	-77.751443	504.587448	866.197225	-102.569314	409.881236	818.299251	-77.360209	355.139376	749.324035	-89.276290	276.766710	715.740249	-91.747003	375.105674	727.128361	-112.958846	175.611367	632.765731	-99.584429	205.191308	647.596592	-176.267793	108.320020	668.998554	-141.478260	255.597706	413.751028	-158.319987	184.960091	481.520376	-85.653640	162.481629	997.529110	-436.315682	206.277860	923.530402	-436.603133	239.765602	930.432484	-421.257702	204.876547	832.871773	-441.582805	232.674907	695.048228	-412.091558	220.540667	675.933190	-307.227823	187.996509	577.507904	-442.900193	201.929565	491.618975	-437.153011	170.005978	408.563088	-437.124104	234.864117	489.869803	-417.317052	169.404864	293.979765	-430.899634	206.911314	318.445005	-365.316044	109.058154	272.156822	-389.723886	378.323808	153.463418	-394.960745	267.812148	163.803051	-458.376035	-164.579727	902.718575	-268.724502	-43.488804	85.053911	-474.691635	-51.685682	80.219317	-77.196148	
1503	7.5150	711.110624	1243.429029	-138.359326	663.693869	1282.372647	-416.825262	682.755461	1334.629952	-280.759089	616.542771	1183.935461	-278.006406	562.818955	1070.756359	45.307393	696.219616	920.359320	-61.883388	500.678086	1062.825848	-537.496891	694.176245	926.679550	-448.656069	79.233535	1249.328150	-244.011454	230.243327	1217.520341	-387.427613	228.123234	1234.453455	-104.580040	254.053740	1153.554619	-345.397729	245.528952	1165.084208	-130.688271	127.547286	1287.245906	-205.034654	131.985455	1284.921745	-291.096761	159.670143	1131.185228	-70.031949	126.743605	1133.975034	-412.126120	253.960686	1064.040539	-62.990278	338.835900	1036.192447	-64.630687	396.567753	969.776249	-68.158093	357.744065	1065.355662	-77.623183	506.960731	874.213456	-99.213094	412.971249	824.869512	-76.298418	359.296315	755.017426	-88.517087	281.480810	720.473395	-91.081631	379.626773	733.091308	-112.059540	180.706757	636.375869	-99.469319	211.405028	651.840711	-175.879973	112.395365	670.875186	-141.346705	266.506993	419.528812	-158.552463	193.848143	485.564108	-85.457701	159.877287	995.312299	-436.688064	202.668915	920.725487	-436.456353	236.118078	927.230946	-420.799532	200.061854	830.128059	-441.159924	224.865968	691.822092	-412.443764	211.596112	673.035661	-307.403006	179.212132	575.019904	-443.201572	193.225286	489.088334	-437.495075	161.216773	406.042148	-437.491381	226.191924	487.251669	-417.730538	160.703020	291.524952	-431.147983	198.256041	315.981657	-365.563528	100.358782	270.390162	-389.870368	368.478658	149.162590	-395.172705	257.963545	160.451120	-458.615603	-164.721109	902.623864	-268.955366	-43.519716	84.994753	-474.708280	-51.698771	80.196860	-77.207648	
1504	7.5200	708.535140	1244.520765	-137.211646	661.920350	1282.473652	-415.856150	680.268806	1335.194345	-280.008027	614.445156	1184.467901	-276.762513	563.373143	1070.932219	48.572751	695.934391	920.569607	-61.805958	499.868989	1062.060796	-537.459754	693.748127	926.072704	-447.971809	76.344137	1247.824197	-246.474939	228.801157	1214.943290	-388.338870	224.551655	1234.693745	-105.620732	252.129210	1151.511006	-345.384212	242.696454	1165.410449	-131.237260	124.073216	1286.053010	-207.976442	129.413549	1283.236082	-293.677211	156.630907	1131.625571	-70.857145	124.748882	1131.445734	-413.601328	251.971435	1065.726797	-64.085687	337.232778	1039.673256	-65.213290	396.147792	974.674711	-67.610375	355.472764	1069.528361	-78.048967	508.859979	880.593224	-98.061776	415.920274	830.935094	-75.391596	363.271827	760.381295	-87.615738	285.939776	724.708133	-90.383400	383.765355	738.886488	-111.130901	185.565469	639.234693	-99.353415	214.845897	655.305019	-175.558713	116.240592	671.859161	-141.265240	278.068395	425.820220	-158.145809	203.286362	489.099915	-85.228726	157.592202	993.689147	-437.175955	199.340621	918.830223	-436.075643	232.834102	924.866870	-420.144847	195.871523	828.134510	-440.549892	217.887298	689.272262	-412.939462	203.656303	670.638931	-307.764715	171.111869	573.084889	-443.510940	184.720353	487.056933	-437.861577	152.368846	404.156106	-437.725109	217.864997	485.078386	-418.378984	151.907921	289.784139	-431.367453	189.720345	314.115305	-365.926944	91.451888	269.302621	-390.003909	358.363633	145.420323	-395.361765	247.912455	157.647686	-458.671496	-164.693119	902.649167	-268.815421	-43.523515	84.962335	-474.733745	-51.720844	80.192634	-77.228471	
